<mxfile host="app.diagrams.net" modified="2024-04-26T13:00:36.454Z" agent="Mozilla/5.0 (X11; Linux x86_64; rv:125.0) Gecko/20100101 Firefox/125.0" etag="foeDQFDWhj8rsvD7hMID" version="24.2.7" type="device">
  <diagram name="Page-1" id="7Bq0H3Z3bL5iUYbq2rVu">
    <mxGraphModel dx="1269" dy="234" grid="1" gridSize="10" guides="1" tooltips="1" connect="1" arrows="1" fold="1" page="1" pageScale="1" pageWidth="850" pageHeight="1100" math="0" shadow="0">
      <root>
        <mxCell id="0" />
        <mxCell id="1" parent="0" />
        <mxCell id="c-Rq7uScd-FVR4qBjpjj-53" style="edgeStyle=orthogonalEdgeStyle;rounded=0;orthogonalLoop=1;jettySize=auto;html=1;fontSize=9;" parent="1" source="c-Rq7uScd-FVR4qBjpjj-1" target="c-Rq7uScd-FVR4qBjpjj-5" edge="1">
          <mxGeometry relative="1" as="geometry" />
        </mxCell>
        <mxCell id="c-Rq7uScd-FVR4qBjpjj-1" value="Início App" style="ellipse;whiteSpace=wrap;html=1;fontSize=9;" parent="1" vertex="1">
          <mxGeometry x="-40" y="400" width="80" height="40" as="geometry" />
        </mxCell>
        <mxCell id="c-Rq7uScd-FVR4qBjpjj-4" value="Tela inicial" style="swimlane;whiteSpace=wrap;html=1;fontSize=9;" parent="1" vertex="1">
          <mxGeometry x="70" y="320" width="310" height="200" as="geometry" />
        </mxCell>
        <mxCell id="c-Rq7uScd-FVR4qBjpjj-58" style="edgeStyle=orthogonalEdgeStyle;rounded=0;orthogonalLoop=1;jettySize=auto;html=1;fontSize=9;" parent="c-Rq7uScd-FVR4qBjpjj-4" source="c-Rq7uScd-FVR4qBjpjj-5" target="c-Rq7uScd-FVR4qBjpjj-6" edge="1">
          <mxGeometry relative="1" as="geometry" />
        </mxCell>
        <mxCell id="c-Rq7uScd-FVR4qBjpjj-59" value="Conectar" style="edgeLabel;html=1;align=center;verticalAlign=middle;resizable=0;points=[];fontSize=9;" parent="c-Rq7uScd-FVR4qBjpjj-58" vertex="1" connectable="0">
          <mxGeometry x="-0.0408" y="1" relative="1" as="geometry">
            <mxPoint as="offset" />
          </mxGeometry>
        </mxCell>
        <mxCell id="c-Rq7uScd-FVR4qBjpjj-5" value="Desconectado" style="ellipse;whiteSpace=wrap;html=1;fontSize=9;" parent="c-Rq7uScd-FVR4qBjpjj-4" vertex="1">
          <mxGeometry x="21" y="80" width="95" height="40" as="geometry" />
        </mxCell>
        <mxCell id="c-Rq7uScd-FVR4qBjpjj-60" style="edgeStyle=orthogonalEdgeStyle;rounded=0;orthogonalLoop=1;jettySize=auto;html=1;entryX=0.5;entryY=1;entryDx=0;entryDy=0;fontSize=9;" parent="c-Rq7uScd-FVR4qBjpjj-4" source="c-Rq7uScd-FVR4qBjpjj-6" target="c-Rq7uScd-FVR4qBjpjj-5" edge="1">
          <mxGeometry relative="1" as="geometry">
            <Array as="points">
              <mxPoint x="239" y="140" />
              <mxPoint x="69" y="140" />
            </Array>
          </mxGeometry>
        </mxCell>
        <mxCell id="c-Rq7uScd-FVR4qBjpjj-61" value="Desconectar" style="edgeLabel;html=1;align=center;verticalAlign=middle;resizable=0;points=[];fontSize=9;" parent="c-Rq7uScd-FVR4qBjpjj-60" vertex="1" connectable="0">
          <mxGeometry x="0.1376" y="1" relative="1" as="geometry">
            <mxPoint as="offset" />
          </mxGeometry>
        </mxCell>
        <mxCell id="c-Rq7uScd-FVR4qBjpjj-6" value="Conectado" style="ellipse;whiteSpace=wrap;html=1;fontSize=9;" parent="c-Rq7uScd-FVR4qBjpjj-4" vertex="1">
          <mxGeometry x="191" y="80" width="95" height="40" as="geometry" />
        </mxCell>
        <mxCell id="c-Rq7uScd-FVR4qBjpjj-12" value="Parâmetros" style="swimlane;whiteSpace=wrap;html=1;fontSize=9;" parent="1" vertex="1">
          <mxGeometry x="400" y="320" width="200" height="200" as="geometry" />
        </mxCell>
        <mxCell id="c-Rq7uScd-FVR4qBjpjj-15" value="Parametrização" style="ellipse;whiteSpace=wrap;html=1;fontSize=9;" parent="c-Rq7uScd-FVR4qBjpjj-12" vertex="1">
          <mxGeometry x="52.5" y="80" width="95" height="40" as="geometry" />
        </mxCell>
        <mxCell id="c-Rq7uScd-FVR4qBjpjj-21" value="Paralela" style="swimlane;whiteSpace=wrap;html=1;fontSize=9;" parent="1" vertex="1">
          <mxGeometry x="620" y="320" width="320" height="200" as="geometry" />
        </mxCell>
        <mxCell id="c-Rq7uScd-FVR4qBjpjj-26" style="edgeStyle=orthogonalEdgeStyle;rounded=0;orthogonalLoop=1;jettySize=auto;html=1;fontSize=9;" parent="c-Rq7uScd-FVR4qBjpjj-21" source="c-Rq7uScd-FVR4qBjpjj-22" target="c-Rq7uScd-FVR4qBjpjj-23" edge="1">
          <mxGeometry relative="1" as="geometry" />
        </mxCell>
        <mxCell id="c-Rq7uScd-FVR4qBjpjj-27" value="Coleta&lt;br style=&quot;font-size: 9px;&quot;&gt;peso" style="edgeLabel;html=1;align=center;verticalAlign=middle;resizable=0;points=[];fontSize=9;" parent="c-Rq7uScd-FVR4qBjpjj-26" vertex="1" connectable="0">
          <mxGeometry x="-0.0489" y="-1" relative="1" as="geometry">
            <mxPoint as="offset" />
          </mxGeometry>
        </mxCell>
        <mxCell id="c-Rq7uScd-FVR4qBjpjj-22" value="Sem peso coletado" style="ellipse;whiteSpace=wrap;html=1;fontSize=9;" parent="c-Rq7uScd-FVR4qBjpjj-21" vertex="1">
          <mxGeometry x="40" y="80" width="95" height="40" as="geometry" />
        </mxCell>
        <mxCell id="c-Rq7uScd-FVR4qBjpjj-29" style="edgeStyle=orthogonalEdgeStyle;rounded=0;orthogonalLoop=1;jettySize=auto;html=1;entryX=0.379;entryY=1.025;entryDx=0;entryDy=0;entryPerimeter=0;fontSize=9;" parent="c-Rq7uScd-FVR4qBjpjj-21" source="c-Rq7uScd-FVR4qBjpjj-23" target="c-Rq7uScd-FVR4qBjpjj-23" edge="1">
          <mxGeometry relative="1" as="geometry">
            <mxPoint x="230" y="130" as="targetPoint" />
            <Array as="points">
              <mxPoint x="270" y="140" />
              <mxPoint x="236" y="140" />
            </Array>
          </mxGeometry>
        </mxCell>
        <mxCell id="c-Rq7uScd-FVR4qBjpjj-30" value="Refazer&lt;br style=&quot;font-size: 9px;&quot;&gt;coleta" style="edgeLabel;html=1;align=center;verticalAlign=middle;resizable=0;points=[];fontSize=9;" parent="c-Rq7uScd-FVR4qBjpjj-29" vertex="1" connectable="0">
          <mxGeometry x="0.1856" y="-1" relative="1" as="geometry">
            <mxPoint x="22" y="1" as="offset" />
          </mxGeometry>
        </mxCell>
        <mxCell id="c-Rq7uScd-FVR4qBjpjj-23" value="Peso coletado" style="ellipse;whiteSpace=wrap;html=1;fontSize=9;" parent="c-Rq7uScd-FVR4qBjpjj-21" vertex="1">
          <mxGeometry x="200" y="80" width="95" height="40" as="geometry" />
        </mxCell>
        <mxCell id="c-Rq7uScd-FVR4qBjpjj-24" style="edgeStyle=orthogonalEdgeStyle;rounded=0;orthogonalLoop=1;jettySize=auto;html=1;fontSize=9;" parent="1" source="c-Rq7uScd-FVR4qBjpjj-15" target="c-Rq7uScd-FVR4qBjpjj-22" edge="1">
          <mxGeometry relative="1" as="geometry" />
        </mxCell>
        <mxCell id="c-Rq7uScd-FVR4qBjpjj-25" value="Avançar" style="edgeLabel;html=1;align=center;verticalAlign=middle;resizable=0;points=[];fontSize=9;" parent="c-Rq7uScd-FVR4qBjpjj-24" vertex="1" connectable="0">
          <mxGeometry x="0.4332" y="-2" relative="1" as="geometry">
            <mxPoint x="-25" y="-2" as="offset" />
          </mxGeometry>
        </mxCell>
        <mxCell id="c-Rq7uScd-FVR4qBjpjj-31" value="Malha Aberta" style="swimlane;whiteSpace=wrap;html=1;fontSize=9;" parent="1" vertex="1">
          <mxGeometry x="955" y="320" width="605" height="200" as="geometry" />
        </mxCell>
        <mxCell id="c-Rq7uScd-FVR4qBjpjj-32" style="edgeStyle=orthogonalEdgeStyle;rounded=0;orthogonalLoop=1;jettySize=auto;html=1;fontSize=9;" parent="c-Rq7uScd-FVR4qBjpjj-31" source="c-Rq7uScd-FVR4qBjpjj-34" target="c-Rq7uScd-FVR4qBjpjj-37" edge="1">
          <mxGeometry relative="1" as="geometry" />
        </mxCell>
        <mxCell id="c-Rq7uScd-FVR4qBjpjj-34" value="Sem MESE&lt;br style=&quot;font-size: 9px;&quot;&gt;coletado" style="ellipse;whiteSpace=wrap;html=1;fontSize=9;" parent="c-Rq7uScd-FVR4qBjpjj-31" vertex="1">
          <mxGeometry x="25" y="80" width="95" height="40" as="geometry" />
        </mxCell>
        <mxCell id="c-Rq7uScd-FVR4qBjpjj-44" style="edgeStyle=orthogonalEdgeStyle;rounded=0;orthogonalLoop=1;jettySize=auto;html=1;fontSize=9;" parent="c-Rq7uScd-FVR4qBjpjj-31" source="c-Rq7uScd-FVR4qBjpjj-37" target="c-Rq7uScd-FVR4qBjpjj-43" edge="1">
          <mxGeometry relative="1" as="geometry" />
        </mxCell>
        <mxCell id="c-Rq7uScd-FVR4qBjpjj-45" value="Gravar" style="edgeLabel;html=1;align=center;verticalAlign=middle;resizable=0;points=[];fontSize=9;" parent="c-Rq7uScd-FVR4qBjpjj-44" vertex="1" connectable="0">
          <mxGeometry x="0.1877" y="1" relative="1" as="geometry">
            <mxPoint x="-8" y="1" as="offset" />
          </mxGeometry>
        </mxCell>
        <mxCell id="c-Rq7uScd-FVR4qBjpjj-37" value="Coletando&lt;br style=&quot;font-size: 9px;&quot;&gt;MESE" style="ellipse;whiteSpace=wrap;html=1;fontSize=9;" parent="c-Rq7uScd-FVR4qBjpjj-31" vertex="1">
          <mxGeometry x="155" y="80" width="95" height="40" as="geometry" />
        </mxCell>
        <mxCell id="c-Rq7uScd-FVR4qBjpjj-39" style="edgeStyle=orthogonalEdgeStyle;rounded=0;orthogonalLoop=1;jettySize=auto;html=1;entryX=0.088;entryY=0.815;entryDx=0;entryDy=0;entryPerimeter=0;fontSize=9;" parent="c-Rq7uScd-FVR4qBjpjj-31" source="c-Rq7uScd-FVR4qBjpjj-37" target="c-Rq7uScd-FVR4qBjpjj-37" edge="1">
          <mxGeometry relative="1" as="geometry">
            <Array as="points">
              <mxPoint x="205" y="140" />
              <mxPoint x="163" y="140" />
            </Array>
          </mxGeometry>
        </mxCell>
        <mxCell id="c-Rq7uScd-FVR4qBjpjj-40" value="+ PWM" style="edgeLabel;html=1;align=center;verticalAlign=middle;resizable=0;points=[];fontSize=9;" parent="c-Rq7uScd-FVR4qBjpjj-39" vertex="1" connectable="0">
          <mxGeometry x="0.0538" relative="1" as="geometry">
            <mxPoint x="7" as="offset" />
          </mxGeometry>
        </mxCell>
        <mxCell id="c-Rq7uScd-FVR4qBjpjj-41" style="edgeStyle=orthogonalEdgeStyle;rounded=0;orthogonalLoop=1;jettySize=auto;html=1;entryX=0.088;entryY=0.829;entryDx=0;entryDy=0;entryPerimeter=0;fontSize=9;" parent="c-Rq7uScd-FVR4qBjpjj-31" source="c-Rq7uScd-FVR4qBjpjj-37" target="c-Rq7uScd-FVR4qBjpjj-37" edge="1">
          <mxGeometry relative="1" as="geometry">
            <Array as="points">
              <mxPoint x="215" y="170" />
              <mxPoint x="163" y="170" />
            </Array>
          </mxGeometry>
        </mxCell>
        <mxCell id="c-Rq7uScd-FVR4qBjpjj-42" value="- PWM" style="edgeLabel;html=1;align=center;verticalAlign=middle;resizable=0;points=[];fontSize=9;" parent="c-Rq7uScd-FVR4qBjpjj-41" vertex="1" connectable="0">
          <mxGeometry x="-0.182" relative="1" as="geometry">
            <mxPoint x="-16" as="offset" />
          </mxGeometry>
        </mxCell>
        <mxCell id="c-Rq7uScd-FVR4qBjpjj-51" style="edgeStyle=orthogonalEdgeStyle;rounded=0;orthogonalLoop=1;jettySize=auto;html=1;fontSize=9;" parent="c-Rq7uScd-FVR4qBjpjj-31" source="c-Rq7uScd-FVR4qBjpjj-43" target="c-Rq7uScd-FVR4qBjpjj-46" edge="1">
          <mxGeometry relative="1" as="geometry" />
        </mxCell>
        <mxCell id="c-Rq7uScd-FVR4qBjpjj-52" value="Ao zerar" style="edgeLabel;html=1;align=center;verticalAlign=middle;resizable=0;points=[];fontSize=9;" parent="c-Rq7uScd-FVR4qBjpjj-51" vertex="1" connectable="0">
          <mxGeometry x="-0.5138" relative="1" as="geometry">
            <mxPoint x="14" as="offset" />
          </mxGeometry>
        </mxCell>
        <mxCell id="c-Rq7uScd-FVR4qBjpjj-43" value="Descida gradual" style="ellipse;whiteSpace=wrap;html=1;fontSize=9;" parent="c-Rq7uScd-FVR4qBjpjj-31" vertex="1">
          <mxGeometry x="305" y="80" width="95" height="40" as="geometry" />
        </mxCell>
        <mxCell id="c-Rq7uScd-FVR4qBjpjj-47" style="edgeStyle=orthogonalEdgeStyle;rounded=0;orthogonalLoop=1;jettySize=auto;html=1;entryX=0.5;entryY=0;entryDx=0;entryDy=0;fontSize=9;" parent="c-Rq7uScd-FVR4qBjpjj-31" source="c-Rq7uScd-FVR4qBjpjj-46" target="c-Rq7uScd-FVR4qBjpjj-37" edge="1">
          <mxGeometry relative="1" as="geometry">
            <Array as="points">
              <mxPoint x="515" y="60" />
              <mxPoint x="202" y="60" />
            </Array>
          </mxGeometry>
        </mxCell>
        <mxCell id="c-Rq7uScd-FVR4qBjpjj-48" value="Refazer coleta" style="edgeLabel;html=1;align=center;verticalAlign=middle;resizable=0;points=[];fontSize=9;" parent="c-Rq7uScd-FVR4qBjpjj-47" vertex="1" connectable="0">
          <mxGeometry x="-0.2347" y="1" relative="1" as="geometry">
            <mxPoint x="-21" y="-1" as="offset" />
          </mxGeometry>
        </mxCell>
        <mxCell id="c-Rq7uScd-FVR4qBjpjj-46" value="MESE&lt;br style=&quot;font-size: 9px;&quot;&gt;coletado" style="ellipse;whiteSpace=wrap;html=1;fontSize=9;" parent="c-Rq7uScd-FVR4qBjpjj-31" vertex="1">
          <mxGeometry x="465" y="80" width="95" height="40" as="geometry" />
        </mxCell>
        <mxCell id="c-Rq7uScd-FVR4qBjpjj-38" style="edgeStyle=orthogonalEdgeStyle;rounded=0;orthogonalLoop=1;jettySize=auto;html=1;fontSize=9;" parent="1" source="c-Rq7uScd-FVR4qBjpjj-23" target="c-Rq7uScd-FVR4qBjpjj-34" edge="1">
          <mxGeometry relative="1" as="geometry" />
        </mxCell>
        <mxCell id="c-Rq7uScd-FVR4qBjpjj-55" style="edgeStyle=orthogonalEdgeStyle;rounded=0;orthogonalLoop=1;jettySize=auto;html=1;fontSize=9;" parent="1" source="c-Rq7uScd-FVR4qBjpjj-6" target="c-Rq7uScd-FVR4qBjpjj-15" edge="1">
          <mxGeometry relative="1" as="geometry" />
        </mxCell>
        <mxCell id="c-Rq7uScd-FVR4qBjpjj-57" value="Avançar" style="edgeLabel;html=1;align=center;verticalAlign=middle;resizable=0;points=[];fontSize=9;" parent="c-Rq7uScd-FVR4qBjpjj-55" vertex="1" connectable="0">
          <mxGeometry x="-0.1643" y="2" relative="1" as="geometry">
            <mxPoint as="offset" />
          </mxGeometry>
        </mxCell>
        <mxCell id="c-Rq7uScd-FVR4qBjpjj-62" value="Operação" style="swimlane;whiteSpace=wrap;html=1;fontSize=9;" parent="1" vertex="1">
          <mxGeometry x="1580" y="320" width="1140" height="200" as="geometry" />
        </mxCell>
        <mxCell id="c-Rq7uScd-FVR4qBjpjj-69" style="edgeStyle=orthogonalEdgeStyle;rounded=0;orthogonalLoop=1;jettySize=auto;html=1;fontSize=9;" parent="c-Rq7uScd-FVR4qBjpjj-62" source="c-Rq7uScd-FVR4qBjpjj-63" target="c-Rq7uScd-FVR4qBjpjj-68" edge="1">
          <mxGeometry relative="1" as="geometry" />
        </mxCell>
        <mxCell id="c-Rq7uScd-FVR4qBjpjj-70" value="Quando&lt;br style=&quot;font-size: 9px;&quot;&gt;&lt;div&gt;peso = setpoint&lt;/div&gt;&lt;div&gt;&amp;amp;&amp;amp; EEGTrigger = 1&lt;br&gt;&lt;/div&gt;" style="edgeLabel;html=1;align=center;verticalAlign=middle;resizable=0;points=[];fontSize=9;" parent="c-Rq7uScd-FVR4qBjpjj-69" vertex="1" connectable="0">
          <mxGeometry x="0.04" relative="1" as="geometry">
            <mxPoint x="-7" as="offset" />
          </mxGeometry>
        </mxCell>
        <mxCell id="c-Rq7uScd-FVR4qBjpjj-82" style="edgeStyle=orthogonalEdgeStyle;rounded=0;orthogonalLoop=1;jettySize=auto;html=1;entryX=0.5;entryY=1;entryDx=0;entryDy=0;fontSize=9;" parent="c-Rq7uScd-FVR4qBjpjj-62" source="c-Rq7uScd-FVR4qBjpjj-63" target="c-Rq7uScd-FVR4qBjpjj-79" edge="1">
          <mxGeometry relative="1" as="geometry">
            <Array as="points">
              <mxPoint x="70" y="170" />
              <mxPoint x="870" y="170" />
            </Array>
          </mxGeometry>
        </mxCell>
        <mxCell id="c-Rq7uScd-FVR4qBjpjj-88" value="Cancelar" style="edgeLabel;html=1;align=center;verticalAlign=middle;resizable=0;points=[];fontSize=9;" parent="c-Rq7uScd-FVR4qBjpjj-82" vertex="1" connectable="0">
          <mxGeometry x="-0.9689" y="1" relative="1" as="geometry">
            <mxPoint as="offset" />
          </mxGeometry>
        </mxCell>
        <mxCell id="c-Rq7uScd-FVR4qBjpjj-63" value="Início da&lt;br&gt;etapa de operação" style="ellipse;whiteSpace=wrap;html=1;align=center;fontSize=9;" parent="c-Rq7uScd-FVR4qBjpjj-62" vertex="1">
          <mxGeometry x="20" y="65" width="100" height="70" as="geometry" />
        </mxCell>
        <mxCell id="c-Rq7uScd-FVR4qBjpjj-72" style="edgeStyle=orthogonalEdgeStyle;rounded=0;orthogonalLoop=1;jettySize=auto;html=1;fontSize=9;" parent="c-Rq7uScd-FVR4qBjpjj-62" source="c-Rq7uScd-FVR4qBjpjj-68" target="c-Rq7uScd-FVR4qBjpjj-71" edge="1">
          <mxGeometry relative="1" as="geometry" />
        </mxCell>
        <mxCell id="c-Rq7uScd-FVR4qBjpjj-73" value="Quando&lt;br style=&quot;font-size: 9px;&quot;&gt;PWM = MESE" style="edgeLabel;html=1;align=center;verticalAlign=middle;resizable=0;points=[];fontSize=9;" parent="c-Rq7uScd-FVR4qBjpjj-72" vertex="1" connectable="0">
          <mxGeometry x="-0.3067" relative="1" as="geometry">
            <mxPoint x="9" as="offset" />
          </mxGeometry>
        </mxCell>
        <mxCell id="c-Rq7uScd-FVR4qBjpjj-85" style="edgeStyle=orthogonalEdgeStyle;rounded=0;orthogonalLoop=1;jettySize=auto;html=1;fontSize=9;" parent="c-Rq7uScd-FVR4qBjpjj-62" source="c-Rq7uScd-FVR4qBjpjj-68" edge="1">
          <mxGeometry relative="1" as="geometry">
            <mxPoint x="270" y="160" as="targetPoint" />
          </mxGeometry>
        </mxCell>
        <mxCell id="c-Rq7uScd-FVR4qBjpjj-89" value="Cancelar" style="edgeLabel;html=1;align=center;verticalAlign=middle;resizable=0;points=[];fontSize=9;" parent="c-Rq7uScd-FVR4qBjpjj-85" vertex="1" connectable="0">
          <mxGeometry x="-0.1919" y="2" relative="1" as="geometry">
            <mxPoint x="-2" y="-2" as="offset" />
          </mxGeometry>
        </mxCell>
        <mxCell id="c-Rq7uScd-FVR4qBjpjj-68" value="Aumento gradual do PWM, de 0 até MESE, etapas=5uS durante 3s" style="ellipse;whiteSpace=wrap;html=1;align=center;fontSize=9;" parent="c-Rq7uScd-FVR4qBjpjj-62" vertex="1">
          <mxGeometry x="220" y="65" width="100" height="70" as="geometry" />
        </mxCell>
        <mxCell id="c-Rq7uScd-FVR4qBjpjj-76" style="edgeStyle=orthogonalEdgeStyle;rounded=0;orthogonalLoop=1;jettySize=auto;html=1;entryX=0;entryY=0.5;entryDx=0;entryDy=0;exitX=1;exitY=0.5;exitDx=0;exitDy=0;fontSize=9;" parent="c-Rq7uScd-FVR4qBjpjj-62" source="c-Rq7uScd-FVR4qBjpjj-71" target="c-Rq7uScd-FVR4qBjpjj-75" edge="1">
          <mxGeometry relative="1" as="geometry">
            <mxPoint x="530" y="99.76" as="sourcePoint" />
            <mxPoint x="630" y="99.76" as="targetPoint" />
          </mxGeometry>
        </mxCell>
        <mxCell id="c-Rq7uScd-FVR4qBjpjj-77" value="2 segundos" style="edgeLabel;html=1;align=center;verticalAlign=middle;resizable=0;points=[];fontSize=9;" parent="c-Rq7uScd-FVR4qBjpjj-76" vertex="1" connectable="0">
          <mxGeometry x="-0.279" y="1" relative="1" as="geometry">
            <mxPoint x="10" y="1" as="offset" />
          </mxGeometry>
        </mxCell>
        <mxCell id="c-Rq7uScd-FVR4qBjpjj-86" style="edgeStyle=orthogonalEdgeStyle;rounded=0;orthogonalLoop=1;jettySize=auto;html=1;fontSize=9;" parent="c-Rq7uScd-FVR4qBjpjj-62" source="c-Rq7uScd-FVR4qBjpjj-71" edge="1">
          <mxGeometry relative="1" as="geometry">
            <mxPoint x="460" y="160" as="targetPoint" />
          </mxGeometry>
        </mxCell>
        <mxCell id="c-Rq7uScd-FVR4qBjpjj-90" value="Cancelar" style="edgeLabel;html=1;align=center;verticalAlign=middle;resizable=0;points=[];fontSize=9;" parent="c-Rq7uScd-FVR4qBjpjj-86" vertex="1" connectable="0">
          <mxGeometry x="-0.4984" relative="1" as="geometry">
            <mxPoint y="2" as="offset" />
          </mxGeometry>
        </mxCell>
        <mxCell id="c-Rq7uScd-FVR4qBjpjj-80" style="edgeStyle=orthogonalEdgeStyle;rounded=0;orthogonalLoop=1;jettySize=auto;html=1;fontSize=9;" parent="c-Rq7uScd-FVR4qBjpjj-62" source="c-Rq7uScd-FVR4qBjpjj-75" target="c-Rq7uScd-FVR4qBjpjj-79" edge="1">
          <mxGeometry relative="1" as="geometry" />
        </mxCell>
        <mxCell id="c-Rq7uScd-FVR4qBjpjj-81" value="Erro positivo&lt;br style=&quot;font-size: 9px;&quot;&gt;durante 2s" style="edgeLabel;html=1;align=center;verticalAlign=middle;resizable=0;points=[];fontSize=9;" parent="c-Rq7uScd-FVR4qBjpjj-80" vertex="1" connectable="0">
          <mxGeometry x="-0.2707" relative="1" as="geometry">
            <mxPoint x="7" as="offset" />
          </mxGeometry>
        </mxCell>
        <mxCell id="c-Rq7uScd-FVR4qBjpjj-87" style="edgeStyle=orthogonalEdgeStyle;rounded=0;orthogonalLoop=1;jettySize=auto;html=1;fontSize=9;" parent="c-Rq7uScd-FVR4qBjpjj-62" source="c-Rq7uScd-FVR4qBjpjj-75" edge="1">
          <mxGeometry relative="1" as="geometry">
            <mxPoint x="680" y="160" as="targetPoint" />
          </mxGeometry>
        </mxCell>
        <mxCell id="c-Rq7uScd-FVR4qBjpjj-91" value="Cancelar" style="edgeLabel;html=1;align=center;verticalAlign=middle;resizable=0;points=[];fontSize=9;" parent="c-Rq7uScd-FVR4qBjpjj-87" vertex="1" connectable="0">
          <mxGeometry x="-0.4404" relative="1" as="geometry">
            <mxPoint y="1" as="offset" />
          </mxGeometry>
        </mxCell>
        <mxCell id="c-Rq7uScd-FVR4qBjpjj-71" value="Transição" style="ellipse;whiteSpace=wrap;html=1;align=center;fontSize=9;" parent="c-Rq7uScd-FVR4qBjpjj-62" vertex="1">
          <mxGeometry x="410" y="65" width="100" height="70" as="geometry" />
        </mxCell>
        <mxCell id="c-Rq7uScd-FVR4qBjpjj-75" value="Controle Malha Fechada entre MESE e MESE_MAX (120% MESE)" style="ellipse;whiteSpace=wrap;html=1;align=center;fontSize=9;fillColor=#ffcccc;strokeColor=#36393d;" parent="c-Rq7uScd-FVR4qBjpjj-62" vertex="1">
          <mxGeometry x="630" y="65" width="100" height="70" as="geometry" />
        </mxCell>
        <mxCell id="c-Rq7uScd-FVR4qBjpjj-93" style="edgeStyle=orthogonalEdgeStyle;rounded=0;orthogonalLoop=1;jettySize=auto;html=1;fontSize=9;" parent="c-Rq7uScd-FVR4qBjpjj-62" source="c-Rq7uScd-FVR4qBjpjj-79" target="c-Rq7uScd-FVR4qBjpjj-92" edge="1">
          <mxGeometry relative="1" as="geometry" />
        </mxCell>
        <mxCell id="c-Rq7uScd-FVR4qBjpjj-94" value="Quando&lt;br style=&quot;font-size: 9px;&quot;&gt;PWM = 0" style="edgeLabel;html=1;align=center;verticalAlign=middle;resizable=0;points=[];fontSize=9;" parent="c-Rq7uScd-FVR4qBjpjj-93" vertex="1" connectable="0">
          <mxGeometry x="-0.129" y="2" relative="1" as="geometry">
            <mxPoint as="offset" />
          </mxGeometry>
        </mxCell>
        <mxCell id="c-Rq7uScd-FVR4qBjpjj-79" value="Decremento gradual&lt;br&gt;do PWM, do valor atual até 0, etapas=5uS&lt;br&gt;durante 3s" style="ellipse;whiteSpace=wrap;html=1;align=center;fontSize=9;" parent="c-Rq7uScd-FVR4qBjpjj-62" vertex="1">
          <mxGeometry x="820" y="65" width="100" height="70" as="geometry" />
        </mxCell>
        <mxCell id="c-Rq7uScd-FVR4qBjpjj-92" value="Stop" style="ellipse;whiteSpace=wrap;html=1;align=center;fontSize=9;" parent="c-Rq7uScd-FVR4qBjpjj-62" vertex="1">
          <mxGeometry x="1010" y="80" width="100" height="40" as="geometry" />
        </mxCell>
        <mxCell id="c-Rq7uScd-FVR4qBjpjj-97" style="edgeStyle=orthogonalEdgeStyle;rounded=0;orthogonalLoop=1;jettySize=auto;html=1;strokeColor=default;endArrow=none;endFill=0;dashed=1;" parent="c-Rq7uScd-FVR4qBjpjj-62" source="c-Rq7uScd-FVR4qBjpjj-96" edge="1">
          <mxGeometry relative="1" as="geometry">
            <mxPoint x="170" y="80" as="targetPoint" />
          </mxGeometry>
        </mxCell>
        <mxCell id="c-Rq7uScd-FVR4qBjpjj-96" value="Aqui o voluntário começa a aplicar peso nas barras (levantar)" style="text;html=1;align=center;verticalAlign=middle;whiteSpace=wrap;rounded=0;fontStyle=2;fontSize=9;" parent="c-Rq7uScd-FVR4qBjpjj-62" vertex="1">
          <mxGeometry x="120" y="30" width="100" height="30" as="geometry" />
        </mxCell>
        <mxCell id="c-Rq7uScd-FVR4qBjpjj-100" value="Aqui o voluntário está de pé, mas equilibrando" style="text;html=1;align=center;verticalAlign=middle;whiteSpace=wrap;rounded=0;fontStyle=2;fontSize=9;" parent="c-Rq7uScd-FVR4qBjpjj-62" vertex="1">
          <mxGeometry x="410" y="29.98" width="100" height="30" as="geometry" />
        </mxCell>
        <mxCell id="c-Rq7uScd-FVR4qBjpjj-101" value="Voluntário está&lt;br&gt;equilibrado, soltou as barras" style="text;html=1;align=center;verticalAlign=middle;whiteSpace=wrap;rounded=0;fontStyle=2;fontSize=9;" parent="c-Rq7uScd-FVR4qBjpjj-62" vertex="1">
          <mxGeometry x="520" y="30.000000000000018" width="100" height="30" as="geometry" />
        </mxCell>
        <mxCell id="c-Rq7uScd-FVR4qBjpjj-102" value="Voluntário está fadigando, apoiando-se nas barras" style="text;html=1;align=center;verticalAlign=middle;whiteSpace=wrap;rounded=0;fontStyle=2;fontSize=9;" parent="c-Rq7uScd-FVR4qBjpjj-62" vertex="1">
          <mxGeometry x="720" y="29.980000000000018" width="100" height="30" as="geometry" />
        </mxCell>
        <mxCell id="c-Rq7uScd-FVR4qBjpjj-103" value="Estimulação&lt;br&gt;contínua" style="text;html=1;align=center;verticalAlign=middle;whiteSpace=wrap;rounded=0;fontStyle=2;fontSize=9;" parent="c-Rq7uScd-FVR4qBjpjj-62" vertex="1">
          <mxGeometry x="630" y="29.980000000000018" width="100" height="30" as="geometry" />
        </mxCell>
        <mxCell id="c-Rq7uScd-FVR4qBjpjj-104" value="&lt;div style=&quot;font-size: 9px;&quot;&gt;&lt;font style=&quot;font-size: 9px;&quot;&gt;Voluntário sentado,&lt;/font&gt;&lt;/div&gt;&lt;div style=&quot;font-size: 9px;&quot;&gt;&lt;font style=&quot;font-size: 9px;&quot;&gt;sem peso nas barras&lt;br style=&quot;font-size: 9px;&quot;&gt;&lt;/font&gt;&lt;/div&gt;" style="text;html=1;align=center;verticalAlign=middle;whiteSpace=wrap;rounded=0;fontStyle=2;fontSize=9;" parent="c-Rq7uScd-FVR4qBjpjj-62" vertex="1">
          <mxGeometry x="20" y="30" width="100" height="30" as="geometry" />
        </mxCell>
        <mxCell id="c-Rq7uScd-FVR4qBjpjj-67" style="edgeStyle=orthogonalEdgeStyle;rounded=0;orthogonalLoop=1;jettySize=auto;html=1;fontSize=9;" parent="1" source="c-Rq7uScd-FVR4qBjpjj-46" target="c-Rq7uScd-FVR4qBjpjj-63" edge="1">
          <mxGeometry relative="1" as="geometry" />
        </mxCell>
      </root>
    </mxGraphModel>
  </diagram>
</mxfile>
